<svg id="Layer_1" data-name="Layer 1" xmlns="http://www.w3.org/2000/svg" viewBox="0 0 1550.1 741.27"><defs><style>.cls-1{fill:#a58b3e;}</style></defs><path class="cls-1" d="M1502.56,274.81c-2,4.57-3.22,7.29-4.32,10.08q-33.13,84.48-66.23,169-28.92,73.78-57.78,147.56a76.28,76.28,0,0,0-4.07,13.12c-3.22,16.64,6.54,30,23.33,32.27,2.27.31,4.57.32,7.36.51.24,1.64.47,3.26.75,5.2a43.9,43.9,0,0,1-4.81.61q-39.48,0-79,0h-18.4l-23-.06a3.41,3.41,0,0,1-1.5-.24c-13.77-7-29.74-8.85-42.57-18-6.85-4.89-14.26-9.26-20.2-15.11-9.79-9.63-19.62-19.53-27.64-30.63-24.38-33.74-47.67-68.27-71.9-102.13a344.28,344.28,0,0,0-27.34-33c-9.12-9.88-20-17.45-34-19.15-2.56-.31-2.52-.59-3.55-5.52,3.09-.11,6-.18,9-.33,16.31-.85,32.76-.64,48.89-2.77,40.68-5.36,69.79-32.72,77.2-72.26,4.85-25.83,3.18-51.52-6.84-76.06-13.15-32.19-37.15-50-72.25-51.07-24-.75-48-.46-72-.6a47.94,47.94,0,0,0-4.87.5,59.94,59.94,0,0,0-.62,6.14q0,185.49,0,371c0,18,7.75,31.59,24.3,39.19,5,2.28,10.77,2.82,16.24,3.9,2.44.48,5,.31,7.92.45.09,1.82.17,3.25.26,5.23H936.74v-5c5.31-.58,10.4-.75,15.34-1.73,19.1-3.76,32.2-19.45,32.81-38.92,0-1,0-2,0-3.06q0-174,.06-348c0-9.79-2.1-18.71-8-26.62-10.82-14.54-18.58-15.79-33-5.19-11.24,8.26-18.63,19.38-24.15,32q-35.09,80.37-70.37,160.65Q797.32,535.7,745.22,654.61c-.72,1.64-1.07,3.59-2.21,4.84-1.31,1.43-3.3,2.24-4.92,3.28-4.81-13.63-8.53-26.62-13.89-38.9-15.62-35.79-31.74-71.37-48-106.9q-71.9-157.47-144-314.81c-10-21.85-20.39-43.54-34.23-63.25a288.74,288.74,0,0,0-26.37-32.76c-28.91-30.45-65-46-106.65-49.18l-5.59-.41a20.21,20.21,0,0,1-.66-3,10.55,10.55,0,0,1,.43-2.39,14.31,14.31,0,0,1,2.89-.7c69.8-2.16,127.2,22.61,170.2,78.53C550.1,152.22,563.7,177.9,575,204.84q56,133.5,111.79,267,22.19,53,44.38,106c1.06,2.53,2.26,5,3.88,8.58,1.62-3.76,2.78-6.28,3.82-8.86Q803,417.21,867,256.8a56.52,56.52,0,0,0,4.18-17.71c.68-13.86-9-24.42-22.77-26.08-1.77-.21-3.56-.26-5.35-.33-4.12-.14-4.54-2.29-2.92-6.33h8.16q128.37,0,256.76,0c15.09,0,30.09,1.13,44.77,5.17,43.76,12,70.79,40,80,84.59,6.85,33.29,2.49,65.06-14.46,94.76-19.46,34.12-48.13,52.88-87.73,57.35.63,1,1,1.93,1.62,2.39,16.84,11.68,29.68,27.16,41.72,43.47,22.59,30.62,45.13,61.29,68.1,91.63a205.11,205.11,0,0,0,36.19,37.35c7,5.51,14.81,9.91,22.28,14.78,4.35,2.84,8.25,2.37,12.6-.67,12.36-8.63,20.8-20.15,26.57-33.88q30.74-73.08,61.54-146.1c29.5-69.85,59.17-139.62,88.5-209.54,6.7-16,12.28-32.39,18.85-49.86,3.33-1.69,4.59,1.72,6,5.2q16,38.55,32.12,77,66.9,160.46,133.92,320.87a102.24,102.24,0,0,0,12.82,22.51c11.1,14.5,26.17,22.44,44.62,23.48,1.76.1,3.5.3,5.68.5v5.32H1598v-5.17c2.18-.21,4.15-.41,6.12-.58,18.67-1.59,29.34-16.07,25.13-34.31a82.28,82.28,0,0,0-3.35-10.17q-15.3-40.89-30.68-81.74-44.4-118.23-88.81-236.48C1505.44,281.72,1504.34,279.18,1502.56,274.81Z" transform="translate(-190.65 -50.31)"/><path class="cls-1" d="M424.12,258.9c-1.41,3.2-2.48,5.42-3.37,7.7Q381.41,367.55,342.1,468.52q-26,66.72-51.81,133.48a66.63,66.63,0,0,0-3.89,13.16c-2.76,16.9,7.11,29.74,24.06,31.72,2.25.27,4.52.34,7.23.53v5.4h-127v-5.34c3.58-.32,7.12-.43,10.6-1,24.42-3.79,40.73-18.1,50.14-40.26,17.38-40.88,34.21-82,51.29-123Q353.64,361,404.61,238.7c1.07-2.58,2-5.2,3.23-8.3-15-21-33-37.92-58.72-45.21-25.45-7.22-50.05-2.61-74.93,5.63-.77-2-1.42-3.75-2.24-5.89a209.84,209.84,0,0,1,55.27-16.14c16.89-2.42,33.62-2,50.15,2.41,22.69,6,41.17,18.74,56.73,36,15.37,17.06,26.69,36.71,36.45,57.33,12.8,27,22.34,55.37,32.3,83.52,26.5,74.82,52.71,149.74,79.61,224.42,14.22,39.48,32.11,77.32,55.11,112.57,14.3,21.93,30.54,42.22,50.62,59.19,17.4,14.71,36.72,25.79,59.16,30.89a118.27,118.27,0,0,0,43.37,1.44c2.27-.32,4.54-.58,6.75-.86,1.89,5.72,1.94,5.84-3.3,7.58a156,156,0,0,1-52.7,8.26c-36.59-.73-67.89-14.87-95.76-37.66-22.17-18.13-40-40.07-55.51-64-24.43-37.76-42.4-78.59-56.64-121.09-12-35.8-22.65-72.07-35.27-107.64-5.93-16.71-12.5-33.22-18.25-50-12.71-37.19-25.27-74.43-38.26-111.53-4-11.54-9.23-22.68-14-34C426.94,263.6,425.68,261.72,424.12,258.9Z" transform="translate(-190.65 -50.31)"/></svg>